<svg width="1200" height="900" viewBox="0 0 1200 900" fill="none" xmlns="http://www.w3.org/2000/svg">
  <rect width="1200" height="900" rx="40" fill="url(#paint0_linear)"/>
  <path d="M282 726C282 509.505 457.505 334 674 334H916V726H282Z" fill="white" fill-opacity="0.92"/>
  <path d="M234 678C234 519.495 362.495 391 521 391H726V678H234Z" fill="#FEF3C7"/>
  <path d="M788 182C851.84 239.966 891 323.593 891 416.366C891 591.826 748.46 734.366 573 734.366C446.43 734.366 337.157 660.218 286 552.916C327.79 576.665 376.152 590.25 427.683 590.25C585.307 590.25 713.1 462.457 713.1 304.833C713.1 261.457 703.414 220.343 686.094 183.537C718.726 173.191 753.486 172.473 788 182Z" fill="#0F766E" fill-opacity="0.82"/>
  <path d="M631 224C631 292.483 575.483 348 507 348C438.517 348 383 292.483 383 224C383 155.517 438.517 100 507 100C575.483 100 631 155.517 631 224Z" fill="#A7F3D0"/>
  <defs>
    <linearGradient id="paint0_linear" x1="68" y1="44" x2="1072" y2="860" gradientUnits="userSpaceOnUse">
      <stop stop-color="#FDE68A"/>
      <stop offset="1" stop-color="#BBF7D0"/>
    </linearGradient>
  </defs>
</svg>
