<svg width="1600" height="1080" viewBox="0 0 1600 1080" fill="none" xmlns="http://www.w3.org/2000/svg">
  <rect width="1600" height="1080" rx="48" fill="url(#paint0_linear)"/>
  <circle cx="274" cy="244" r="166" fill="#A7F3D0" fill-opacity="0.28"/>
  <circle cx="1294" cy="226" r="208" fill="#BFDBFE" fill-opacity="0.26"/>
  <circle cx="1346" cy="850" r="184" fill="#FDE68A" fill-opacity="0.22"/>
  <path d="M102 898C222 696 436 554 696 560C958 566 1208 742 1498 620V1042H102V898Z" fill="url(#paint1_linear)"/>
  <rect x="872" y="222" width="408" height="500" rx="36" fill="white" fill-opacity="0.92"/>
  <rect x="940" y="306" width="172" height="172" rx="86" fill="#14B8A6" fill-opacity="0.16"/>
  <path d="M1027 392C1027 356.654 1055.65 328 1091 328C1126.35 328 1155 356.654 1155 392C1155 427.346 1126.35 456 1091 456C1055.65 456 1027 427.346 1027 392Z" fill="#0F766E"/>
  <path d="M1186 556H966C954.954 556 946 564.954 946 576V626C946 637.046 954.954 646 966 646H1186C1197.05 646 1206 637.046 1206 626V576C1206 564.954 1197.05 556 1186 556Z" fill="#E2E8F0"/>
  <rect x="978" y="584" width="122" height="16" rx="8" fill="#14B8A6"/>
  <rect x="1114" y="584" width="52" height="16" rx="8" fill="#94A3B8"/>
  <path d="M274 638C274 512.109 376.109 410 502 410H778C903.891 410 1006 512.109 1006 638V776C1006 901.891 903.891 1004 778 1004H502C376.109 1004 274 901.891 274 776V638Z" fill="white" fill-opacity="0.95"/>
  <path d="M382 610C382 574.654 410.654 546 446 546H836C871.346 546 900 574.654 900 610V812C900 847.346 871.346 876 836 876H446C410.654 876 382 847.346 382 812V610Z" fill="#F8FAFC"/>
  <path d="M640 656C683.078 656 718 621.078 718 578C718 534.922 683.078 500 640 500C596.922 500 562 534.922 562 578C562 621.078 596.922 656 640 656Z" fill="#0F766E"/>
  <path d="M586 740C586 699.131 619.131 666 660 666H730C770.869 666 804 699.131 804 740V790H586V740Z" fill="#0EA5A4"/>
  <rect x="462" y="716" width="86" height="22" rx="11" fill="#14B8A6"/>
  <rect x="462" y="760" width="92" height="18" rx="9" fill="#CBD5E1"/>
  <rect x="828" y="476" width="124" height="124" rx="24" fill="#0F766E"/>
  <path d="M874 528H906V496H932V528H964V554H932V586H906V554H874V528Z" fill="white"/>
  <defs>
    <linearGradient id="paint0_linear" x1="96" y1="64" x2="1498" y2="1024" gradientUnits="userSpaceOnUse">
      <stop stop-color="#082F49"/>
      <stop offset="0.52" stop-color="#0F766E"/>
      <stop offset="1" stop-color="#0F172A"/>
    </linearGradient>
    <linearGradient id="paint1_linear" x1="190" y1="660" x2="1392" y2="986" gradientUnits="userSpaceOnUse">
      <stop stop-color="#14B8A6" stop-opacity="0.18"/>
      <stop offset="1" stop-color="#E2E8F0" stop-opacity="0.05"/>
    </linearGradient>
  </defs>
</svg>
