<svg width="256" height="256" viewBox="0 0 256 256" fill="none" xmlns="http://www.w3.org/2000/svg">
  <rect width="256" height="256" rx="64" fill="url(#paint0_linear)"/>
  <path d="M88 70C109.457 70 126.853 87.3969 126.853 108.853C126.853 118.362 123.403 127.046 117.68 133.72L143.867 159.907C150.54 154.183 159.224 150.733 168.733 150.733C190.19 150.733 207.587 168.13 207.587 189.587C207.587 211.043 190.19 228.44 168.733 228.44C147.276 228.44 129.88 211.043 129.88 189.587C129.88 180.078 133.329 171.394 139.053 164.72L112.867 138.533C106.193 144.257 97.5094 147.707 88 147.707C66.543 147.707 49.1465 130.31 49.1465 108.853C49.1465 87.3969 66.543 70 88 70Z" fill="white" fill-opacity="0.96"/>
  <circle cx="88" cy="108.853" r="17" fill="#0F766E"/>
  <circle cx="168.733" cy="189.587" r="17" fill="#0EA5A4"/>
  <defs>
    <linearGradient id="paint0_linear" x1="22" y1="22" x2="234" y2="236" gradientUnits="userSpaceOnUse">
      <stop stop-color="#FDE68A"/>
      <stop offset="1" stop-color="#A7F3D0"/>
    </linearGradient>
  </defs>
</svg>
